<?xml version="1.0" encoding="utf-8"?>
<!-- Generator: Adobe Illustrator 23.0.3, SVG Export Plug-In . SVG Version: 6.00 Build 0)  -->
<svg version="1.1" id="Capa_1" xmlns="http://www.w3.org/2000/svg" xmlns:xlink="http://www.w3.org/1999/xlink" x="0px" y="0px"
	 viewBox="0 0 317 105" style="enable-background:new 0 0 317 105;" xml:space="preserve">
<style type="text/css">
	.st0{clip-path:url(#SVGID_2_);fill:#1C1C1C;}
	.st1{fill:#1C1C1C;}
	.st2{clip-path:url(#SVGID_4_);fill:#1C1C1C;}
	.st3{clip-path:url(#SVGID_4_);fill:#FFDB00;}
	.st4{clip-path:url(#SVGID_4_);fill:#1D1D1B;}
</style>
<g>
	<defs>
		<rect id="SVGID_1_" x="7" y="6.7" width="300.2" height="88.3"/>
	</defs>
	<clipPath id="SVGID_2_">
		<use xlink:href="#SVGID_1_"  style="overflow:visible;"/>
	</clipPath>
	<path class="st0" d="M182,20.5h-5.4l-1.1,6.1h5.4c2.5,0,3.9-0.9,4.3-3C185.5,21.5,184.5,20.5,182,20.5 M180.1,36h-6.3l-1.1,6.1h6.3
		c2.5,0,3.8-0.9,4.2-3C183.6,37.1,182.6,36,180.1,36 M180,53.1h-23.3l7.9-43.4h22.7c8.9,0,13.9,3.7,12.6,11.3
		c-0.9,5.2-4.7,8.8-9.3,9.9c5.3,1.3,7.5,5.5,6.6,10.4C195.8,48.8,189.7,53.1,180,53.1"/>
</g>
<polygon class="st1" points="65.7,9.7 82.8,9.7 87.9,35.8 102.2,9.7 119.2,9.7 111.4,53.1 97.5,53.1 101.4,31.5 90.6,53.1 
	78.7,53.1 75.7,31.3 71.8,53.1 57.9,53.1 "/>
<polygon class="st1" points="206.8,9.7 220.8,9.7 212.9,53.1 199,53.1 "/>
<g>
	<defs>
		<rect id="SVGID_3_" x="7" y="6.7" width="300.2" height="88.3"/>
	</defs>
	<clipPath id="SVGID_4_">
		<use xlink:href="#SVGID_3_"  style="overflow:visible;"/>
	</clipPath>
	<path class="st2" d="M105.7,24.3c0,0,24.5,9.2,20.5,34.1c46-8.8,35.1-58.5,1.5-50.9c0,0-15.5,2.8-31.2,12.5
		c31.2-12.5,39.6-4.3,39.7-2.9L105.7,24.3z"/>
	<path class="st3" d="M101.2,22.3c16.8-17.1,40.9-11.3,44.5-1c-13.2-5.4-27-2.3-19,7.6c0,0,4,4.8,16.2,9.5c3.6,2.6-4.1,7.2-8.6,8
		C134.2,46.4,123.1,25.6,101.2,22.3"/>
	<path class="st2" d="M247,10.3c11.9,0,18.7,6.9,18.6,17.2h-14.8c-0.8-2.9-3.2-4.6-6.3-4.6c-4.8,0-8.4,3.8-9.4,9.6
		c-1.1,5.8,1.2,9.6,6,9.6c3.2,0,6.1-1.7,8-4.6h14.8c-3.7,10.3-13.1,17.2-24.9,17.2c-13.8,0-20.5-9.2-18.1-22.3
		C223.2,19.5,233.3,10.3,247,10.3"/>
	<path class="st4" d="M304.2,89.8h1.8l1.1-6.4c0.6-3.1-1.1-4.7-3.6-4.7c-1.5,0-2.9,0.6-3.8,1.8L300,79h-1.8l-1.9,10.9h1.8l1.1-6.1v0
		c0.4-2.3,1.9-3.5,3.7-3.5c1.8,0,2.8,1.1,2.4,3.4L304.2,89.8z M288.4,76.6l-0.2,1.4l4.6-2.3l0.3-1.6L288.4,76.6z M285.6,85.4
		c0-2.7,1.8-5.1,4.4-5.1c1.6,0,3.1,1,3.1,3.1c0,2.7-1.9,5.1-4.5,5.1C286.9,88.5,285.6,87.5,285.6,85.4 M294.9,83.3
		c0-2.8-1.9-4.5-4.7-4.5c-3.8,0-6.6,3-6.6,6.7c0,2.7,1.8,4.5,4.6,4.5C292.1,90,294.9,87.1,294.9,83.3 M281.8,77.2
		c0.7,0,1.3-0.5,1.4-1.2c0.1-0.7-0.3-1.2-1-1.2c-0.7,0-1.3,0.5-1.4,1.2S281.1,77.2,281.8,77.2 M278.7,89.8h1.8l1.9-10.9h-1.8
		L278.7,89.8z M266.9,84.4c-0.6,3.5,1.2,5.6,4.3,5.6c2.7,0,4.7-1.5,5.7-3.7h-1.9c-0.6,1.4-1.8,2.1-3.4,2.1c-2,0-3.2-1.4-2.7-4.1
		c0.5-2.7,2.2-4.1,4.2-4.1c1.6,0,2.6,0.8,2.7,2.1h1.9c-0.2-2.3-1.7-3.7-4.4-3.7C270.1,78.8,267.5,81,266.9,84.4 M254.8,84.4
		c-0.6,3.5,1.2,5.6,4.3,5.6c2.7,0,4.7-1.5,5.7-3.7h-1.9c-0.6,1.4-1.8,2.1-3.4,2.1c-2,0-3.2-1.4-2.7-4.1c0.5-2.7,2.2-4.1,4.2-4.1
		c1.6,0,2.6,0.8,2.7,2.1h1.9c-0.2-2.3-1.7-3.7-4.4-3.7C258,78.8,255.4,81,254.8,84.4 M252.5,86.5h-1.9c-0.6,1.2-1.8,2-3.4,2
		c-1.9,0-3.2-1.3-2.9-3.5h8.7c0.1-0.4,0.2-0.7,0.3-1.1c0.5-2.9-1.2-5.2-4.3-5.2c-3.2,0-5.8,2.2-6.4,5.6c-0.6,3.5,1.3,5.6,4.4,5.6
		C249.6,90,251.6,88.5,252.5,86.5 M248.6,80.3c1.9,0,3.2,1.2,2.8,3.4h-6.9C245.1,81.5,246.8,80.3,248.6,80.3 M235.9,86.9
		c-0.4,2.2,0.6,3,2.5,3h1.6l0.3-1.5H239c-1.1,0-1.5-0.4-1.3-1.4l1.1-6.4h2.8L242,79h-2.8l0.5-2.7h-1.8l-0.5,2.7h-1.4l-0.3,1.5h1.4
		L235.9,86.9z M224.3,85.4c0-2.7,1.8-5.1,4.4-5.1c1.6,0,3.1,1,3.1,3.1c0,2.7-1.9,5.1-4.5,5.1C225.7,88.5,224.3,87.5,224.3,85.4
		 M233.7,83.3c0-2.8-1.9-4.5-4.7-4.5c-3.8,0-6.6,3-6.6,6.7c0,2.7,1.8,4.5,4.6,4.5C230.8,90,233.7,87.1,233.7,83.3 M217.8,83.9
		c0.5-2.5,1.9-3.3,3.6-3.3h0.5l0.3-1.9c-1.7,0-3.1,0.9-3.9,2.3l0.4-2.1h-1.8l-1.9,10.9h1.8L217.8,83.9z M211.6,84.4
		c-0.5,2.6-2.4,4.1-4.4,4.1c-2,0-3.4-1.5-3-4.1c0.5-2.5,2.4-4,4.4-4C210.7,80.3,212.1,81.8,211.6,84.4 M204.9,81l0.4-2h-1.8l-2.8,16
		h1.8l1.3-7.2c0.5,1.1,1.7,2.2,3.7,2.2c2.9,0,5.6-2.3,6.2-5.7c0.6-3.4-1.3-5.6-4.2-5.6C207.3,78.8,205.7,79.8,204.9,81 M194.4,79
		h-1.8l-1.1,6v-0.1c-0.4,2.3-1.9,3.5-3.7,3.5c-1.8,0-2.8-1.1-2.4-3.3l1.1-6.1h-1.8l-1.1,6.4c-0.5,3.1,1.2,4.7,3.7,4.7
		c1.4,0,2.9-0.6,3.8-1.7l-0.3,1.6h1.8L194.4,79z M176.5,86.9c-0.4,2.2,0.6,3,2.5,3h1.6l0.3-1.5h-1.3c-1.1,0-1.4-0.4-1.3-1.4l1.1-6.4
		h2.8l0.3-1.5h-2.8l0.5-2.7h-1.8l-0.5,2.7h-1.4l-0.3,1.5h1.4L176.5,86.9z M165.8,84.4c-0.5,2.6-2.4,4.1-4.4,4.1c-2,0-3.4-1.5-3-4.1
		c0.4-2.6,2.4-4,4.4-4C164.8,80.3,166.2,81.9,165.8,84.4 M156.6,84.4c-0.6,3.4,1.3,5.7,4.2,5.7c2,0,3.6-1,4.5-2.2l-0.4,2h1.8
		l1.9-10.9h-1.8l-0.4,2c-0.4-1.1-1.6-2.2-3.7-2.2C159.8,78.8,157.2,81,156.6,84.4 M151.7,83.9c0.5-2.5,1.9-3.3,3.6-3.3h0.5l0.3-1.9
		c-1.7,0-3.1,0.9-3.9,2.3l0.4-2.1h-1.8l-1.9,10.9h1.8L151.7,83.9z M145,84.4c-0.5,2.6-2.4,4.1-4.4,4.1c-2,0-3.4-1.5-3-4.1
		c0.4-2.6,2.4-4,4.4-4C144,80.3,145.4,81.9,145,84.4 M135.7,84.4c-0.6,3.4,1.3,5.7,4.2,5.7c2,0,3.6-1,4.5-2.2l-0.4,2h1.8l1.9-10.9
		h-1.8l-0.4,2c-0.4-1.1-1.6-2.2-3.7-2.2C139,78.8,136.3,81,135.7,84.4 M132.2,84.4c-0.5,2.6-2.4,4.1-4.4,4.1c-2,0-3.4-1.5-3-4.1
		c0.5-2.5,2.4-4,4.4-4C131.2,80.3,132.7,81.8,132.2,84.4 M125.4,81l0.4-2H124l-2.8,16h1.8l1.3-7.2c0.5,1.1,1.7,2.2,3.7,2.2
		c2.9,0,5.6-2.3,6.2-5.7c0.6-3.4-1.3-5.6-4.2-5.6C127.9,78.8,126.3,79.8,125.4,81 M113.9,86.9c0-3.4-5.5-2.7-5.5-5
		c0-1,0.9-1.6,2.2-1.6c1.4,0,2.3,0.8,2.2,2h1.7c0.3-2-1.4-3.4-3.8-3.4c-2.4,0-4.2,1.3-4.2,3.1c0,3.6,5.5,2.8,5.5,5
		c0,1.1-1.1,1.6-2.5,1.6c-1.5,0-2.3-0.8-2.2-1.9h-1.8c-0.2,2.1,1.5,3.4,3.9,3.4C112.1,90,113.9,88.8,113.9,86.9 M95.1,85.4
		c0-2.7,1.8-5.1,4.4-5.1c1.6,0,3.1,1,3.1,3.1c0,2.7-1.9,5.1-4.5,5.1C96.4,88.5,95.1,87.5,95.1,85.4 M104.4,83.3
		c0-2.8-1.9-4.5-4.7-4.5c-3.8,0-6.6,3-6.6,6.7c0,2.7,1.8,4.5,4.6,4.5C101.6,90,104.4,87.1,104.4,83.3 M91.3,77.2
		c0.7,0,1.3-0.5,1.4-1.2c0.1-0.7-0.3-1.2-1-1.2c-0.7,0-1.3,0.5-1.4,1.2C90.2,76.7,90.6,77.2,91.3,77.2 M88.2,89.8H90L91.9,79h-1.8
		L88.2,89.8z M83.6,83.9c0.5-2.5,1.9-3.3,3.6-3.3h0.5l0.3-1.9c-1.7,0-3.1,0.9-3.9,2.3l0.4-2.1h-1.8l-1.9,10.9h1.8L83.6,83.9z
		 M70.1,85.4c0-2.7,1.8-5.1,4.4-5.1c1.6,0,3.1,1,3.1,3.1c0,2.7-1.9,5.1-4.5,5.1C71.4,88.5,70.1,87.5,70.1,85.4 M79.4,83.3
		c0-2.8-1.9-4.5-4.7-4.5c-3.8,0-6.6,3-6.6,6.7c0,2.7,1.8,4.5,4.6,4.5C76.6,90,79.4,87.1,79.4,83.3 M65.9,86.9c0-3.4-5.5-2.7-5.5-5
		c0-1,0.9-1.6,2.2-1.6c1.4,0,2.3,0.8,2.2,2h1.7c0.3-2-1.4-3.4-3.8-3.4c-2.4,0-4.1,1.3-4.1,3.1c0,3.6,5.5,2.8,5.5,5
		c0,1.1-1.1,1.6-2.5,1.6c-1.5,0-2.3-0.8-2.2-1.9h-1.8c-0.2,2.1,1.5,3.4,3.9,3.4C64,90,65.9,88.8,65.9,86.9 M55.7,86.5h-1.9
		c-0.6,1.2-1.8,2-3.4,2c-1.9,0-3.2-1.3-2.9-3.5h8.7c0.1-0.4,0.2-0.7,0.3-1.1c0.5-2.9-1.2-5.2-4.3-5.2c-3.2,0-5.8,2.2-6.4,5.6
		C45,87.8,47,90,50,90C52.7,90,54.8,88.5,55.7,86.5 M51.7,80.3c1.9,0,3.2,1.2,2.8,3.4h-6.9C48.2,81.5,49.9,80.3,51.7,80.3
		 M33.6,84.4C33,87.8,34.8,90,37.9,90c2.7,0,4.7-1.5,5.7-3.7h-1.9c-0.6,1.4-1.8,2.1-3.4,2.1c-2,0-3.2-1.4-2.7-4.1
		c0.5-2.7,2.2-4.1,4.2-4.1c1.6,0,2.6,0.8,2.7,2.1h1.9c-0.2-2.3-1.7-3.7-4.4-3.7C36.8,78.8,34.2,81,33.6,84.4 M21.5,84.4
		c-0.6,3.5,1.2,5.6,4.3,5.6c2.7,0,4.7-1.5,5.7-3.7h-1.9c-0.6,1.4-1.8,2.1-3.4,2.1c-2,0-3.2-1.4-2.7-4.1c0.5-2.7,2.2-4.1,4.2-4.1
		c1.6,0,2.6,0.8,2.7,2.1h1.9c-0.2-2.3-1.7-3.7-4.4-3.7C24.8,78.8,22.2,81,21.5,84.4 M16.4,85.3h-5l3.8-7.1L16.4,85.3z M17.2,89.8
		h1.9l-2.6-13.8h-2.1L7,89.8h1.9l1.6-3.1h6.1L17.2,89.8z"/>
</g>
</svg>
